<svg xmlns="http://www.w3.org/2000/svg" viewBox="0 0 1200 760" role="img" aria-labelledby="title desc">
  <title id="title">Computer vision accessibility visual</title>
  <desc id="desc">An accessible computer vision interface translating hand movement into speech and inclusive interaction signals.</desc>
  <defs>
    <radialGradient id="bg" cx="44%" cy="36%" r="76%">
      <stop offset="0" stop-color="#16384c"/>
      <stop offset=".54" stop-color="#071426"/>
      <stop offset="1" stop-color="#050816"/>
    </radialGradient>
    <linearGradient id="accent" x1="0" x2="1">
      <stop offset="0" stop-color="#00d1ff"/>
      <stop offset="1" stop-color="#ff6b00"/>
    </linearGradient>
    <filter id="glow" x="-50%" y="-50%" width="200%" height="200%">
      <feGaussianBlur stdDeviation="8" result="blur"/>
      <feMerge><feMergeNode in="blur"/><feMergeNode in="SourceGraphic"/></feMerge>
    </filter>
  </defs>
  <rect width="1200" height="760" fill="url(#bg)"/>
  <g opacity=".18" stroke="#ffffff" fill="none">
    <path d="M0 156h1200M0 306h1200M0 456h1200M0 606h1200"/>
    <path d="M150 0v760M300 0v760M450 0v760M600 0v760M750 0v760M900 0v760M1050 0v760"/>
  </g>
  <rect x="116" y="106" width="968" height="548" rx="34" fill="#081321" fill-opacity=".78" stroke="#ffffff" stroke-opacity=".14" stroke-width="2"/>
  <circle cx="372" cy="358" r="160" fill="#0d2134" stroke="#00d1ff" stroke-opacity=".32" stroke-width="3"/>
  <path d="M316 412c-20-62-8-152 28-178 20-14 40-2 38 24l-6 92 24-124c8-38 54-32 52 8l-8 126 26-110c10-42 58-30 50 14l-22 126 38-68c18-32 58-12 42 24l-58 128c-20 44-64 76-112 76h-30c-54 0-96-28-112-78z" fill="#dffbff" fill-opacity=".86" stroke="#8ff5ff" stroke-width="4" filter="url(#glow)"/>
  <g fill="#00d1ff" filter="url(#glow)">
    <circle cx="344" cy="232" r="9"/>
    <circle cx="452" cy="224" r="9"/>
    <circle cx="520" cy="260" r="9"/>
    <circle cx="578" cy="344" r="9"/>
    <circle cx="402" cy="486" r="9"/>
  </g>
  <g fill="#0b1828" stroke="#ffffff" stroke-opacity=".14">
    <rect x="668" y="174" width="300" height="106" rx="22"/>
    <rect x="668" y="320" width="300" height="106" rx="22"/>
    <rect x="668" y="466" width="300" height="106" rx="22"/>
  </g>
  <g fill="#eaffff">
    <rect x="710" y="214" width="172" height="10" rx="5"/>
    <rect x="710" y="248" width="104" height="10" rx="5"/>
    <rect x="710" y="360" width="178" height="10" rx="5"/>
    <rect x="710" y="394" width="126" height="10" rx="5"/>
    <rect x="710" y="506" width="190" height="10" rx="5"/>
    <rect x="710" y="540" width="92" height="10" rx="5"/>
  </g>
  <path d="M172 604h850" stroke="url(#accent)" stroke-width="5" stroke-linecap="round" filter="url(#glow)"/>
  <g transform="translate(760 614)" fill="#00d1ff" filter="url(#glow)">
    <rect x="0" y="-58" width="12" height="58" rx="6"/>
    <rect x="30" y="-86" width="12" height="86" rx="6"/>
    <rect x="60" y="-42" width="12" height="42" rx="6"/>
    <rect x="90" y="-72" width="12" height="72" rx="6"/>
    <rect x="120" y="-52" width="12" height="52" rx="6"/>
  </g>
</svg>
